<svg xmlns="http://www.w3.org/2000/svg" viewBox="0 0 16 20"><defs><style>.cls-1{fill:#0c0b0b}</style></defs><title>bl5_icon</title><g id="Слой_2" data-name="Слой 2"><path class="cls-1" d="M14.86 8.08h-.41V6.25A6.34 6.34 0 0 0 8.19 0h-.38a6.34 6.34 0 0 0-6.27 6.25v1.83h-.41A1.28 1.28 0 0 0 0 9.46v9.15A1.29 1.29 0 0 0 1.13 20h13.73A1.29 1.29 0 0 0 16 18.61V9.46a1.28 1.28 0 0 0-1.14-1.38zM9.29 14v2.76a.6.6 0 0 1-.61.58H7.32a.6.6 0 0 1-.61-.58V14a1.61 1.61 0 0 1-.51-1.18 1.68 1.68 0 0 1 1.6-1.66h.38a1.68 1.68 0 0 1 1.6 1.66A1.61 1.61 0 0 1 9.29 14zm2.5-5.95H4.21v-1.8A3.74 3.74 0 0 1 8 2.58a3.74 3.74 0 0 1 3.79 3.67z" id="Слой_1-2" data-name="Слой 1"/></g></svg>